# File created by Blade
# Date/Time:  Wed Jan 21 15:23:53 2015
#---------------------------------------------------------
:version 1.10
:name HOM
:units
  mass 1.0
  length 1.000000
  angle deg
:documentation
     Acclaim Skeleton File
:root
   axis xyz
   order TX TY TZ RX RY RZ
   position 0.000000 0.000000 0.000000
   orientation 0 0 0
:bonedata
   begin
      id 1
      name Spine_dum
      direction 0.000000 1.000000 0.000000
      length 7.067664
      axis 0.0 0.0 0.0 xyz
   end
   begin
      id 2
      name LeftUpLeg_dum
      direction 1.000000 0.000000 0.000000
      length 4.013002
      axis 0.0 0.0 0.0 xyz
   end
   begin
      id 3
      name RightUpLeg_dum
      direction -1.000000 0.000000 0.000000
      length 4.013002
      axis 0.0 0.0 0.0 xyz
   end
   begin
      id 4
      name Spine
      direction 0.000000 1.000000 0.000000
      length 0.000000
      axis 0.0 0.0 0.0 xyz
      dof rx ry rz
   end
   begin
      id 5
      name Spine_dum1
      direction 0.000000 1.000000 0.000000
      length 15.039886
      axis 0.0 0.0 0.0 xyz
   end
   begin
      id 6
      name Spine_dum2
      direction 0.000000 1.000000 0.000000
      length 10.530368
      axis 0.0 0.0 0.0 xyz
   end
   begin
      id 7
      name Spine_dum3
      direction 0.000000 1.000000 0.000000
      length 10.530368
      axis 0.0 0.0 0.0 xyz
   end
   begin
      id 8
      name Head
      direction 0.000000 1.000000 0.000000
      length 4.527550
      axis 0.0 0.0 0.0 xyz
      dof rx ry rz
   end
   begin
      id 9
      name LeftShoulder
      direction 1.000000 0.000000 0.000000
      length 7.028855
      axis 0.0 0.0 -90.0 xyz
      dof rx ry rz
   end
   begin
      id 10
      name LeftArm
      direction 1.000000 0.000000 0.000000
      length 10.797705
      axis 0.0 0.0 -90.0 xyz
      dof rx ry rz
   end
   begin
      id 11
      name LeftForeArm
      direction 1.000000 0.000000 0.000000
      length 7.907442
      axis 0.0 0.0 -90.0 xyz
      dof ry rz rx
   end
   begin
      id 12
      name LeftHand
      direction 0.000000 0.000000 0.000000
      length 0.000000
      axis 0.0 0.0 -90.0 xyz
      dof rx ry rz
   end
   begin
      id 13
      name LeftHand_dum1
      direction 0.000000 0.000000 0.000000
      length 0.000000
      axis 0.0 0.0 -90.0 xyz
   end
   begin
      id 14
      name LeftHand_dum2
      direction 1.000000 0.000000 0.000000
      length 3.937000
      axis 0.0 0.0 -90.0 xyz
   end
   begin
      id 15
      name LeftHandThumb1
      direction 0.000000 0.000000 1.000000
      length 3.937000
      axis 0.0 0.0 -90.0 xyz
      dof rx rz ry
   end
   begin
      id 16
      name RightShoulder
      direction -1.000000 0.000000 0.000000
      length 7.028855
      axis 0.0 0.0 90.0 xyz
      dof rx ry rz
   end
   begin
      id 17
      name RightArm
      direction -1.000000 0.000000 0.000000
      length 10.797705
      axis 0.0 0.0 90.0 xyz
      dof rx ry rz
   end
   begin
      id 18
      name RightForeArm
      direction -1.000000 0.000000 0.000000
      length 7.907442
      axis 0.0 0.0 90.0 xyz
      dof ry rz rx
   end
   begin
      id 19
      name RightHand
      direction 0.000000 0.000000 0.000000
      length 0.000000
      axis 0.0 0.0 90.0 xyz
      dof rx ry rz
   end
   begin
      id 20
      name RightHand_dum1
      direction 0.000000 0.000000 0.000000
      length 0.000000
      axis 0.0 0.0 90.0 xyz
   end
   begin
      id 21
      name RightHand_dum2
      direction -1.000000 0.000000 0.000000
      length 3.937000
      axis 0.0 0.0 90.0 xyz
   end
   begin
      id 22
      name RightHandThumb1
      direction 0.000000 0.000000 1.000000
      length 3.937000
      axis 0.0 0.0 90.0 xyz
      dof rx rz ry
   end
   begin
      id 23
      name LeftUpLeg
      direction 0.000000 -1.000000 0.000000
      length 16.899758
      axis 0.0 0.0 0.0 xyz
      dof rx ry rz
   end
   begin
      id 24
      name LeftLeg
      direction 0.000000 -1.000000 0.000000
      length 17.389183
      axis 0.0 0.0 0.0 xyz
      dof rx ry rz
   end
   begin
      id 25
      name LeftFoot
      direction 0.000000 -0.258819 0.965926
      length 4.924528
      axis 15.0 0.0 0.0 xyz
      dof rx ry rz
   end
   begin
      id 26
      name LeftToeBase
      direction 0.000000 0.000000 1.000000
      length 2.952750
      axis 0.0 0.0 0.0 xyz
      dof rx ry rz
   end
   begin
      id 27
      name RightUpLeg
      direction 0.000000 -1.000000 0.000000
      length 16.899758
      axis 0.0 0.0 0.0 xyz
      dof rx ry rz
   end
   begin
      id 28
      name RightLeg
      direction 0.000000 -1.000000 0.000000
      length 17.389183
      axis 0.0 0.0 0.0 xyz
      dof rx ry rz
   end
   begin
      id 29
      name RightFoot
      direction 0.000000 -0.258819 0.965926
      length 4.924528
      axis 15.0 0.0 0.0 xyz
      dof rx ry rz
   end
   begin
      id 30
      name RightToeBase
      direction 0.000000 0.000000 1.000000
      length 2.952750
      axis 0.0 0.0 0.0 xyz
      dof rx ry rz
   end
:hierarchy
   begin
      root Spine_dum LeftUpLeg_dum RightUpLeg_dum
      Spine_dum Spine
      LeftUpLeg_dum LeftUpLeg
      RightUpLeg_dum RightUpLeg
      Spine Spine_dum1 Spine_dum2 Spine_dum3
      Spine_dum1 Head
      Spine_dum2 LeftShoulder
      Spine_dum3 RightShoulder
      LeftShoulder LeftArm
      LeftArm LeftForeArm
      LeftForeArm LeftHand
      LeftHand LeftHand_dum1 LeftHand_dum2
      LeftHand_dum1 LeftHandThumb1
      RightShoulder RightArm
      RightArm RightForeArm
      RightForeArm RightHand
      RightHand RightHand_dum1 RightHand_dum2
      RightHand_dum1 RightHandThumb1
      LeftUpLeg LeftLeg
      LeftLeg LeftFoot
      LeftFoot LeftToeBase
      RightUpLeg RightLeg
      RightLeg RightFoot
      RightFoot RightToeBase
   end

# File created by Blade
# Date/Time:  Wed Jan 21 15:23:43 2015
# Frame Rate: 120.000 fps
#------------------------------------------------------
:FULLY-SPECIFIED
:DEGREES
56
root 20.792466 35.567941 -22.719730 -177.768026 0.170091 -178.599376
Spine -12.547876 -0.822680 0.373966
Head 10.858136 -0.339344 1.455477
LeftShoulder -14.206552 -31.896097 17.959355
LeftArm 3.686202 7.172160 -7.822020
LeftForeArm 3.522902 -0.000000 -1.296636
LeftHand -8.737318 -0.000000 0.042355
LeftHandThumb1 -26.253704 0.000000 33.147579
RightShoulder -11.715526 -4.892897 -8.749102
RightArm 6.456194 35.852946 12.635410
RightForeArm -32.249529 -0.000000 7.693394
RightHand -7.934605 -0.000000 1.721463
RightHandThumb1 -24.326973 -0.000000 -32.862282
LeftUpLeg 6.425617 9.341597 2.875530
LeftLeg -5.903353 -0.000000 0.000000
LeftFoot -20.504900 25.881312 -13.956443
LeftToeBase 25.791891 -0.000000 -0.000000
RightUpLeg 4.248694 -8.586288 -0.770889
RightLeg -1.242516 -0.000000 0.000000
RightFoot -21.245690 -22.349211 17.208390
RightToeBase 23.857082 -0.000000 -0.000000
57
root 20.788034 35.569270 -22.708633 -177.840617 0.235521 -178.591536
Spine -12.390449 -0.738427 0.340592
Head 10.938537 -0.458370 1.472687
LeftShoulder -14.258943 -31.630670 17.823996
LeftArm 3.676414 7.917487 -8.234556
LeftForeArm 1.417525 -0.000000 -1.363144
LeftHand -8.562856 0.000000 0.326020
LeftHandThumb1 -26.253704 0.000000 33.147579
RightShoulder -11.682014 -5.048095 -8.576556
RightArm 6.354086 35.398563 13.089159
RightForeArm -31.744709 -0.000000 7.887834
RightHand -8.172659 -0.000000 0.246962
RightHandThumb1 -24.326973 -0.000000 -32.862282
LeftUpLeg 6.453389 9.293170 2.871057
LeftLeg -5.825393 -0.000000 0.000000
LeftFoot -20.555516 25.985554 -13.944248
LeftToeBase 25.734341 -0.000000 -0.000000
RightUpLeg 4.209557 -8.563264 -0.778165
RightLeg -1.074720 -0.000000 0.000000
RightFoot -21.282854 -22.289976 17.191182
RightToeBase 23.819523 -0.000000 -0.000000
58
root 20.783665 35.570886 -22.695428 -177.861921 0.329943 -178.604712
Spine -12.295560 -0.625566 0.267988
Head 11.040574 -0.633415 1.508378
LeftShoulder -14.284705 -31.327025 17.685156
LeftArm 3.615626 8.489172 -8.722631
LeftForeArm -0.569598 -0.000000 -1.384672
LeftHand -8.361146 -0.000000 0.710606
LeftHandThumb1 -26.253704 0.000000 33.147579
RightShoulder -11.634990 -5.118471 -8.415271
RightArm 6.209016 34.923614 13.606435
RightForeArm -31.172184 -0.000000 8.017330
RightHand -7.982411 -0.000000 -1.252216
RightHandThumb1 -24.326973 -0.000000 -32.862282
LeftUpLeg 6.423016 9.284807 2.834957
LeftLeg -5.738371 -0.000000 0.000000
LeftFoot -20.625106 26.091789 -13.952709
LeftToeBase 25.747354 -0.000000 -0.000000
RightUpLeg 4.109397 -8.478861 -0.802328
RightLeg -0.904601 -0.000000 0.000000
RightFoot -21.350138 -22.273033 17.222823
RightToeBase 23.885903 -0.000000 -0.000000
59
root 20.780537 35.571637 -22.683401 -177.953091 0.429378 -178.595866
Spine -12.106466 -0.502116 0.234446
Head 11.143381 -0.820776 1.487061
LeftShoulder -14.246104 -30.974713 17.405794
LeftArm 3.546049 8.620719 -9.157702
LeftForeArm -1.617041 -0.000000 -1.465480
LeftHand -7.964354 0.000000 0.590999
LeftHandThumb1 -26.253704 0.000000 33.147579
RightShoulder -11.581085 -5.240706 -8.269492
RightArm 6.117625 34.584627 14.245542
RightForeArm -30.488810 -0.000000 8.112948
RightHand -7.797898 0.000000 -2.830049
RightHandThumb1 -24.326973 -0.000000 -32.862282
LeftUpLeg 6.472639 9.265600 2.835296
LeftLeg -5.660001 -0.000000 0.000000
LeftFoot -20.714293 26.243975 -13.900760
LeftToeBase 25.868785 -0.000000 -0.000000
RightUpLeg 4.081340 -8.377577 -0.812710
RightLeg -0.733795 -0.000000 0.000000
RightFoot -21.403579 -22.267445 17.199967
RightToeBase 23.922089 -0.000000 -0.000000
60
root 20.775392 35.573202 -22.667544 -178.079019 0.496301 -178.555201
Spine -11.855465 -0.440562 0.262183
Head 11.250025 -0.896221 1.454786
LeftShoulder -14.242314 -30.648568 17.090183
LeftArm 3.473801 8.680461 -9.652554
LeftForeArm -2.313560 -0.000000 -1.460625
LeftHand -7.639320 -0.000000 0.649401
LeftHandThumb1 -26.253704 0.000000 33.147579
RightShoulder -11.408591 -5.312800 -8.173043
RightArm 5.877968 34.450394 14.941256
RightForeArm -30.079359 -0.000000 8.253960
RightHand -7.527668 -0.000000 -4.223313
RightHandThumb1 -24.326973 -0.000000 -32.862282
LeftUpLeg 6.523379 9.197304 2.866548
LeftLeg -5.538864 -0.000000 0.000000
LeftFoot -20.803046 26.395146 -13.815703
LeftToeBase 25.943729 -0.000000 -0.000000
RightUpLeg 4.091807 -8.292483 -0.795480
RightLeg -0.576700 -0.000000 0.000000
RightFoot -21.436131 -22.260410 17.268542
RightToeBase 23.863514 -0.000000 -0.000000
61
root 20.766660 35.575089 -22.645042 -178.089705 0.659606 -178.573442
Spine -11.757034 -0.253251 0.203873
Head 11.431248 -1.031819 1.452773
LeftShoulder -14.156706 -30.329328 16.727434
LeftArm 3.360625 8.676942 -10.134586
LeftForeArm -2.117100 -0.000000 -1.391705
LeftHand -7.461340 0.000000 0.563489
LeftHandThumb1 -26.253704 0.000000 33.147579
RightShoulder -11.362382 -5.434202 -7.983586
RightArm 5.877585 34.442764 15.731857
RightForeArm -29.684918 -0.000000 8.279218
RightHand -7.307564 0.000000 -5.588288
RightHandThumb1 -24.326973 -0.000000 -32.862282
LeftUpLeg 6.457800 9.241773 2.807800
LeftLeg -5.415505 -0.000000 0.000000
LeftFoot -20.901697 26.534684 -13.824193
LeftToeBase 25.961895 -0.000000 -0.000000
RightUpLeg 3.907666 -8.125293 -0.825274
RightLeg -0.310239 -0.000000 0.000000
RightFoot -21.513472 -22.243711 17.248910
RightToeBase 23.884988 -0.000000 -0.000000
62
root 20.759653 35.577464 -22.632374 -178.208090 0.734566 -178.567179
Spine -11.537269 -0.161887 0.180253
Head 11.607482 -1.184231 1.423154
LeftShoulder -14.056536 -30.128906 16.346155
LeftArm 3.178295 8.575395 -10.650460
LeftForeArm -1.532910 -0.000000 -1.278636
LeftHand -7.308742 -0.000000 0.298393
LeftHandThumb1 -26.253704 0.000000 33.147579
RightShoulder -11.359267 -5.665152 -7.677730
RightArm 6.017809 34.545733 16.506969
RightForeArm -29.474287 -0.000000 8.261026
RightHand -7.190567 -0.000000 -6.651562
RightHandThumb1 -24.326973 -0.000000 -32.862282
LeftUpLeg 6.513917 9.191492 2.798339
LeftLeg -5.309299 -0.000000 0.000000
LeftFoot -20.948868 26.671126 -13.798777
LeftToeBase 25.823856 -0.000000 -0.000000
RightUpLeg 3.865634 -8.154526 -0.853637
RightLeg -0.057683 -0.000000 0.000000
RightFoot -21.557601 -22.077023 17.348416
RightToeBase 23.806252 -0.000000 -0.000000
